<?xml version="1.0" encoding="utf-8"?>
<!-- Generator: Adobe Illustrator 23.0.1, SVG Export Plug-In . SVG Version: 6.00 Build 0)  -->
<svg version="1.1" id="Layer_1" xmlns="http://www.w3.org/2000/svg" xmlns:xlink="http://www.w3.org/1999/xlink" x="0px" y="0px"
   viewBox="0 0 1024 1024" style="enable-background:new 0 0 1024 1024;" xml:space="preserve">
<style type="text/css">
  .st0{fill:#FFFFFF;}
</style>
<g id="Page-1">
  <g id="notion-logo">
    <path id="Background" class="st0" d="M82.3,44.2L650.6,2.3c69.8-6,87.7-2,131.6,29.9l181.4,127.4c29.9,21.9,39.9,27.9,39.9,51.8
      v698.8c0,43.8-16,69.7-71.8,73.7l-660,39.8c-41.9,2-61.8-4-83.8-31.9L54.4,818.6c-23.9-31.9-33.9-55.7-33.9-83.6V113.8
      C20.5,78,36.4,48.1,82.3,44.2z"/>
    <path id="Shape" d="M190,179.5c31.9,25.9,43.8,23.9,103.7,19.9l564.3-33.9c12,0,2-11.9-2-13.9L762.2,84
      c-18-13.9-41.9-29.9-87.7-25.9L128.1,97.9c-19.9,2-23.9,11.9-16,19.9L190,179.5z M223.9,310.9v593.3c0,31.9,15.9,43.8,51.8,41.8
      l620.1-35.9c35.9-2,39.9-23.9,39.9-49.8V271.1c0-25.9-10-39.8-31.9-37.8l-648,37.8C231.8,273.1,223.9,285.1,223.9,310.9z
       M836,342.8c4,17.9,0,35.9-18,37.9l-29.9,5.9v438c-25.9,13.9-49.9,21.9-69.8,21.9c-31.9,0-39.9-10-63.8-39.8L459.1,500.1v296.6
      l61.8,13.9c0,0,0,35.8-49.9,35.8l-137.6,8c-4-8,0-27.9,14-31.9l35.9-9.9V420.4l-49.8-4c-4-17.9,6-43.8,33.9-45.8l147.6-9.9
      l203.4,310.6V396.5l-51.9-5.9c-4-21.9,11.9-37.8,31.9-39.8L836,342.8z M82.3,44.2L650.6,2.3c69.8-6,87.7-2,131.6,29.9l181.4,127.4
      c29.9,21.9,39.9,27.9,39.9,51.8v698.8c0,43.8-16,69.7-71.8,73.7l-660,39.8c-41.9,2-61.8-4-83.8-31.9L54.4,818.6
      c-23.9-31.9-33.9-55.7-33.9-83.6V113.8C20.5,78,36.4,48.1,82.3,44.2z"/>
  </g>
</g>
</svg>